<?xml version="1.0" encoding="UTF-8"?>
<!-- Created with Inkscape (http://www.inkscape.org/) -->
<svg width="1488.6" height="510.24" version="1.1" viewBox="0 0 393.85 135" xmlns="http://www.w3.org/2000/svg" xmlns:cc="http://creativecommons.org/ns#" xmlns:dc="http://purl.org/dc/elements/1.1/" xmlns:rdf="http://www.w3.org/1999/02/22-rdf-syntax-ns#">
 <metadata>
  <rdf:RDF>
   <cc:Work rdf:about="">
    <dc:format>image/svg+xml</dc:format>
    <dc:type rdf:resource="http://purl.org/dc/dcmitype/StillImage"/>
    <dc:title/>
   </cc:Work>
  </rdf:RDF>
 </metadata>
 <g transform="translate(-167.81 180.88)">
  <path transform="matrix(.26458 0 0 .26458 167.81 -180.88)" d="m110.98 465.61v-251.22c0-1.2444 0.11176-2.5119 0.33399-3.8008 0.22222-1.2889 0.55555-2.5983 1-3.9316 0.44444-1.3333 0.99934-2.6906 1.666-4.0684s1.4451-2.777 2.334-4.1992c1.9555-3.0222 4.1771-5.9105 6.666-8.666 2.4889-2.7556 5.2454-5.3783 8.2676-7.8672 3.2-2.4889 6.5333-4.7563 10-6.8008 3.4667-2.0444 7.0655-3.8668 10.799-5.4668 1.9556-0.80001 3.9116-1.4996 5.8672-2.0996 1.9556-0.6 3.9116-1.1 5.8672-1.5 1.9556-0.4 3.9097-0.70039 5.8652-0.90039 1.9556-0.2 3.9116-0.29883 5.8672-0.29883 3.8222 0 7.4889 0.26549 11 0.79883 3.5111 0.53333 6.8664 1.3337 10.066 2.4004s6.2459 2.4 9.1348 4 5.6214 3.4663 8.1992 5.5996c1.3333 1.0667 2.5833 2.2069 3.75 3.418 1.1667 1.2111 2.25 2.494 3.25 3.8496 1 1.3556 1.9167 2.7832 2.75 4.2832 0.83333 1.5 1.5833 3.0724 2.25 4.7168 0.66666 1.6444 1.25 3.3615 1.75 5.1504s0.91666 3.6487 1.25 5.582c0.33333 1.9333 0.58333 3.9398 0.75 6.0176 0.16666 2.0778 0.25 4.227 0.25 6.4492v168h53.334v-170.13c0-1.2444 0.0988-2.5099 0.29883-3.7988 0.2-1.2889 0.50039-2.6003 0.90039-3.9336 0.8-2.6667 1.9996-5.4231 3.5996-8.2676 1.7778-3.0222 3.8217-5.9104 6.1328-8.666s4.8899-5.3783 7.7344-7.8672c1.5111-1.3333 3.077-2.6008 4.6992-3.8008 1.6222-1.2 3.2999-2.3318 5.0332-3.3984 1.7333-1.0667 3.5227-2.0667 5.3672-3 1.8444-0.93333 3.7456-1.8016 5.7012-2.6016 1.9556-0.80001 3.9426-1.4996 5.9648-2.0996s4.0791-1.1 6.168-1.5 4.2116-0.70039 6.3672-0.90039c2.1556-0.2 4.3442-0.29883 6.5664-0.29883 3.8222 0.0889 7.4889 0.4332 11 1.0332 3.5111 0.60001 6.8664 1.4553 10.066 2.5664s6.2439 2.4774 9.1328 4.0996 5.6214 3.5014 8.1992 5.6348c1.3333 1.0667 2.5833 2.2026 3.75 3.4082 1.1667 1.2056 2.25 2.4798 3.25 3.8242 1 1.3444 1.9167 2.7588 2.75 4.2422 0.83333 1.4833 1.5833 3.036 2.25 4.6582 0.66667 1.6222 1.25 3.3131 1.75 5.0742s0.91667 3.5922 1.25 5.4922 0.58333 3.8693 0.75 5.9082c0.16667 2.0389 0.25 4.1464 0.25 6.3242v168h53.867v-174.93c0-3.9111-0.16667-7.7115-0.5-11.4-0.33334-3.6889-0.83333-7.2677-1.5-10.734s-1.5-6.822-2.5-10.066c-1-3.2444-2.1667-6.3782-3.5-9.4004-1.3333-3.0222-2.7894-5.9214-4.3672-8.6992-1.5778-2.7778-3.2774-5.4335-5.0996-7.9668-1.8222-2.5333-3.7654-4.9435-5.832-7.2324-2.0667-2.2889-4.2572-4.4556-6.5684-6.5-2.2222-2.0444-4.5556-3.9566-7-5.7344s-4.9994-3.4225-7.666-4.9336c-2.6667-1.5111-5.4451-2.8884-8.334-4.1328-2.8889-1.2444-5.8889-2.3562-9-3.334-3.0222-1.0667-6.0991-1.9988-9.2324-2.7988s-6.322-1.4667-9.5664-2c-3.2444-0.53333-6.5448-0.93451-9.9004-1.2012-3.3556-0.26667-6.7658-0.40039-10.232-0.40039-5.3333 0.0889-10.445 0.42222-15.334 1-4.8889 0.57777-9.5556 1.4001-14 2.4668-4.4444 1.0667-8.666 2.378-12.666 3.9336s-7.7784 3.356-11.334 5.4004c-3.5556 2.0444-6.9548 4.1342-10.199 6.2676-3.2444 2.1333-6.3342 4.311-9.2676 6.5332s-5.7118 4.4877-8.334 6.7988c-2.6222 2.3111-5.0873 4.6664-7.3984 7.0664-2.3111-3.2-4.8001-6.211-7.4668-9.0332s-5.511-5.454-8.5332-7.8984c-3.0222-2.4444-6.2238-4.7009-9.6016-6.7676-3.3778-2.0667-6.9327-3.9439-10.666-5.6328-3.6444-1.6889-7.366-3.1669-11.166-4.4336-3.8-1.2667-7.6792-2.3216-11.635-3.166-3.9556-0.84444-7.9885-1.4782-12.1-1.9004s-8.2998-0.63476-12.566-0.63476c-3.8222 0-7.5438 0.13372-11.166 0.40039-3.6222 0.26666-7.1442 0.66784-10.566 1.2012s-6.7446 1.2-9.9668 2c-3.2222 0.8-6.345 1.7322-9.3672 2.7988-2.9333 1.0667-5.7776 2.2224-8.5332 3.4668-2.7556 1.2444-5.4222 2.5778-8 4-2.5778 1.4222-5.0668 2.9332-7.4668 4.5332s-4.7114 3.2886-6.9336 5.0664v-19.199h-54.4v297.33a255.12 255.12 0 0 0 54.4 50.426z" fill="#fff" stroke-width=".96429"/>
  <path transform="matrix(.26458 0 0 .26458 167.81 -180.88)" d="m255.12 0a255.12 255.12 0 0 0-255.12 255.12 255.12 255.12 0 0 0 56.576 160.06v-297.33h54.4v19.199c2.2222-1.7778 4.5336-3.4664 6.9336-5.0664s4.889-3.111 7.4668-4.5332c2.5778-1.4222 5.2444-2.7556 8-4 2.7556-1.2444 5.5999-2.4001 8.5332-3.4668 3.0222-1.0667 6.145-1.9988 9.3672-2.7988 3.2222-0.8 6.5446-1.4667 9.9668-2s6.9442-0.93451 10.566-1.2012c3.6222-0.26667 7.3438-0.40039 11.166-0.40039 4.2667 0 8.4553 0.21254 12.566 0.63476s8.144 1.056 12.1 1.9004c3.9556 0.84445 7.8348 1.8994 11.635 3.166 3.8 1.2667 7.5216 2.7447 11.166 4.4336 3.7333 1.6889 7.2882 3.5662 10.666 5.6328 3.3778 2.0667 6.5793 4.3231 9.6016 6.7676 3.0222 2.4444 5.8665 5.0762 8.5332 7.8984s5.1557 5.8332 7.4668 9.0332c2.3111-2.4 4.7762-4.7553 7.3984-7.0664 2.6222-2.3111 5.4006-4.5766 8.334-6.7988s6.0231-4.3999 9.2676-6.5332c3.2444-2.1333 6.6437-4.2231 10.199-6.2676 3.5556-2.0444 7.334-3.8448 11.334-5.4004s8.2216-2.8669 12.666-3.9336c4.4444-1.0667 9.1111-1.889 14-2.4668 4.8889-0.57778 10.001-0.91112 15.334-1 3.4667 0 6.8769 0.13372 10.232 0.40039 3.3556 0.26666 6.656 0.66784 9.9004 1.2012 3.2444 0.53333 6.4331 1.2 9.5664 2s6.2102 1.7322 9.2324 2.7988c3.1111 0.97777 6.1111 2.0895 9 3.334 2.8889 1.2444 5.6673 2.6217 8.334 4.1328 2.6667 1.5111 5.2216 3.1558 7.666 4.9336s4.7778 3.6899 7 5.7344c2.3111 2.0444 4.5017 4.2111 6.5684 6.5 2.0667 2.2889 4.0098 4.6991 5.832 7.2324 1.8222 2.5333 3.5218 5.189 5.0996 7.9668 1.5778 2.7778 3.0339 5.677 4.3672 8.6992 1.3333 3.0222 2.5 6.156 3.5 9.4004 1 3.2444 1.8333 6.5997 2.5 10.066s1.1667 7.0455 1.5 10.734c0.33333 3.6889 0.5 7.4893 0.5 11.4v174.93h-53.867v-168c0-2.1778-0.0833-4.2853-0.25-6.3242-0.16667-2.0389-0.41667-4.0082-0.75-5.9082s-0.75-3.7311-1.25-5.4922-1.0833-3.452-1.75-5.0742c-0.66666-1.6222-1.4167-3.1749-2.25-4.6582-0.83333-1.4833-1.75-2.8977-2.75-4.2422-1-1.3444-2.0833-2.6187-3.25-3.8242-1.1667-1.2056-2.4167-2.3415-3.75-3.4082-2.5778-2.1333-5.3103-4.0125-8.1992-5.6348s-5.9328-2.9885-9.1328-4.0996-6.5553-1.9664-10.066-2.5664c-3.5111-0.6-7.1778-0.94431-11-1.0332-2.2222 0-4.4108 0.0988-6.5664 0.29883-2.1556 0.2-4.2783 0.50039-6.3672 0.90039s-4.1458 0.9-6.168 1.5-4.0093 1.2996-5.9648 2.0996c-1.9556 0.8-3.8567 1.6682-5.7012 2.6016-1.8444 0.93334-3.6339 1.9333-5.3672 3-1.7333 1.0667-3.411 2.1984-5.0332 3.3984-1.6222 1.2-3.1881 2.4674-4.6992 3.8008-2.8444 2.4889-5.4233 5.1116-7.7344 7.8672s-4.355 5.6438-6.1328 8.666c-1.6 2.8444-2.7996 5.6009-3.5996 8.2676-0.4 1.3333-0.70039 2.6447-0.90039 3.9336s-0.29883 2.5544-0.29883 3.7988v170.13h-53.334v-168c0-2.2222-0.0833-4.3714-0.25-6.4492-0.16667-2.0778-0.41667-4.0842-0.75-6.0176-0.33334-1.9333-0.75-3.7931-1.25-5.582s-1.0833-3.506-1.75-5.1504c-0.66667-1.6444-1.4167-3.2168-2.25-4.7168-0.83334-1.5-1.75-2.9276-2.75-4.2832-1-1.3556-2.0833-2.6385-3.25-3.8496-1.1667-1.2111-2.4167-2.3513-3.75-3.418-2.5778-2.1333-5.3103-3.9996-8.1992-5.5996s-5.9348-2.9333-9.1348-4-6.5553-1.8671-10.066-2.4004c-3.5111-0.53334-7.1778-0.79883-11-0.79883-1.9556 0-3.9116 0.0988-5.8672 0.29883-1.9556 0.2-3.9097 0.50039-5.8652 0.90039-1.9556 0.4-3.9116 0.9-5.8672 1.5-1.9556 0.6-3.9116 1.2996-5.8672 2.0996-3.7333 1.6-7.3322 3.4224-10.799 5.4668-3.4667 2.0444-6.8 4.3119-10 6.8008-3.0222 2.4889-5.7787 5.1116-8.2676 7.8672-2.4889 2.7556-4.7105 5.6438-6.666 8.666-0.8889 1.4222-1.6673 2.8214-2.334 4.1992s-1.2216 2.735-1.666 4.0684c-0.44445 1.3333-0.77778 2.6428-1 3.9316-0.22223 1.2889-0.33399 2.5563-0.33399 3.8008v251.22a255.12 255.12 0 0 0 144.14 44.631 255.12 255.12 0 0 0 255.12-255.12 255.12 255.12 0 0 0-255.12-255.12z" fill="#1b66b7" stroke-width=".96429"/>
  <g stroke-width=".26458" aria-label="agis">
   <path d="m357.89-107.99q-3.3867-1.27-7.1967-1.5522-3.6689-0.28222-7.62-0.28222-2.8222 0-5.5033 0.56444-2.6811 0.42333-4.9389 1.5522-2.1167 1.1289-3.5278 3.2456-1.27 1.9756-1.27 4.9389 0 4.0922 3.3867 6.2089 3.3867 2.1167 9.5956 2.1167 4.9389 0 9.4544-1.9756 4.5156-1.9756 7.62-6.0678zm0 29.069v-3.3867q-3.9511 2.8222-8.7489 3.3867-4.6567 0.70556-10.301 0.70556-5.3622 0-10.019-1.27-4.6567-1.4111-8.0433-4.0922-3.3867-2.6811-5.3622-6.6322-1.8344-3.9511-1.8344-9.1722 0-6.0678 2.2578-10.583 2.2578-4.6567 6.0678-7.62 3.81-3.1044 8.89-4.5156 5.08-1.5522 10.583-1.5522 4.5156 0 8.4667 0.14111 4.0922 0.14111 8.0433 1.27v-1.6933q0-6.2089-3.9511-9.4544-3.9511-3.3867-10.866-3.3867-2.2578 0-4.2333 0.28223-1.9756 0.28222-3.81 1.1289-1.8344 0.84666-3.6689 2.54-1.8344 1.5522-3.9511 4.0922l-10.442-9.0311q5.5033-6.35 11.712-9.3133 6.2089-3.1044 14.676-3.1044 6.35 0 11.571 1.6933 5.3622 1.5522 9.1722 4.7978 3.81 3.1044 5.9267 7.9022 2.1167 4.6567 2.1167 10.724v46.143z"/>
   <path d="m439-79.623q-5.5033 1.27-11.007 1.27-7.0556 0-13.688-1.9756-6.6322-2.1167-11.712-6.4911-5.08-4.3744-8.1844-11.148-3.1044-6.7733-3.1044-16.228 0-7.7611 2.54-14.393t7.3378-11.43q4.7978-4.7978 11.712-7.4789 6.9144-2.6811 15.522-2.6811 5.7856 0 11.853 1.1289 6.2089 1.1289 12.982 3.1044v67.31q0 8.3256-2.3989 14.111-2.3989 5.9267-6.7733 9.5956-4.2333 3.81-10.301 5.5033-5.9267 1.6933-13.123 1.6933-9.0311 0-16.369-3.6689-7.3378-3.5278-13.264-9.7367l9.5956-10.442q8.7489 9.8778 20.32 9.8778 9.0311 0 13.547-3.6689 4.5156-3.5278 4.5156-11.994zm-33.02-34.713q0 11.007 6.0678 16.933 6.2089 5.9267 16.651 5.9267 2.3989 0 4.9389-0.56444 2.6811-0.56444 5.3622-1.27v-42.333q-5.2211-1.4111-11.43-1.4111-10.16 0-15.946 6.35-5.6444 6.2089-5.6444 16.369z"/>
   <path d="m473.18-78.918v-70.556h14.393v70.556z"/>
   <path d="m549.38-129.86q-2.8222-3.6689-6.2089-5.5033-3.2456-1.8344-7.7611-1.8344-5.08 0-7.3378 1.8344-2.1167 1.6933-2.1167 4.3744 0 3.6689 3.9511 5.6444 3.9511 1.9756 9.0311 3.5278 3.81 1.27 7.62 2.8222 3.9511 1.4111 7.0556 3.9511 3.2456 2.3989 5.2211 6.2089 2.1167 3.6689 2.1167 9.1722 0 5.08-2.1167 9.1722-1.9756 3.9511-5.5033 6.7733-3.5278 2.6811-8.3256 4.0922-4.6567 1.4111-10.019 1.4111-8.0433 0-14.676-3.2456-6.6322-3.3867-12.982-10.724l10.724-9.8778q7.7611 10.442 17.357 10.442 5.7856 0 8.4667-1.9756 2.8222-1.9756 2.8222-4.7978 0-2.2578-1.1289-3.81-1.1289-1.5522-3.1044-2.6811-1.8344-1.27-4.3744-2.1167t-5.2211-1.6933q-3.81-1.1289-7.62-2.54-3.81-1.4111-6.7733-3.6689-2.9633-2.3989-4.9389-5.9267-1.8344-3.6689-1.8344-9.1722 0-9.8778 6.6322-15.24 6.7733-5.3622 17.498-5.3622 7.4789 0 13.547 2.9633 6.2089 2.9633 12.277 10.442l-10.16 9.7367z"/>
  </g>
  <g stroke-width=".26458" aria-label=".school">
   <path d="m453.83-53.077q0-0.9525 0.59973-1.5875 0.635-0.67028 1.6228-0.67028 0.9525 0 1.5875 0.67028 0.67028 0.635 0.67028 1.5875 0 0.98778-0.67028 1.6228-0.635 0.59972-1.5875 0.59972-0.98777 0-1.6228-0.59972-0.59973-0.635-0.59973-1.6228z"/>
   <path d="m472.38-63.59q-0.70555-0.91722-1.5522-1.3758-0.81139-0.45861-1.9403-0.45861-1.27 0-1.8344 0.45861-0.52917 0.42333-0.52917 1.0936 0 0.91722 0.98778 1.4111 0.98778 0.49389 2.2578 0.88194 0.9525 0.3175 1.905 0.70556 0.98778 0.35278 1.7639 0.98778 0.81139 0.59972 1.3053 1.5522 0.52917 0.91722 0.52917 2.2931 0 1.27-0.52917 2.2931-0.49388 0.98778-1.3758 1.6933-0.88194 0.67028-2.0814 1.0231-1.1642 0.35278-2.5047 0.35278-2.0108 0-3.6689-0.81139-1.6581-0.84667-3.2456-2.6811l2.6811-2.4694q1.9403 2.6106 4.3392 2.6106 1.4464 0 2.1167-0.49389 0.70555-0.49389 0.70555-1.1994 0-0.56444-0.28222-0.9525-0.28222-0.38806-0.77611-0.67028-0.45861-0.3175-1.0936-0.52917-0.635-0.21167-1.3053-0.42333-0.9525-0.28222-1.905-0.635t-1.6933-0.91722q-0.74083-0.59972-1.2347-1.4817-0.45861-0.91722-0.45861-2.2931 0-2.4694 1.658-3.81 1.6933-1.3406 4.3744-1.3406 1.8697 0 3.3867 0.74083 1.5522 0.74083 3.0692 2.6106l-2.54 2.4342z"/>
   <path d="m494-53.571q-1.2347 1.3053-2.8222 2.0814-1.5522 0.74083-3.8453 0.74083-2.1872 0-3.7747-0.74083-1.5522-0.77611-2.5753-2.0108-0.98777-1.27-1.4817-2.8928-0.49389-1.6228-0.49389-3.3514 0-1.8697 0.52916-3.4925 0.52917-1.6581 1.5522-2.8575 1.0583-1.2347 2.6106-1.905 1.5522-0.70556 3.5983-0.70556 2.1519 0 3.8453 0.91722 1.7286 0.88194 3.1044 2.3989l-2.4342 2.3989q-0.98778-1.0936-2.1167-1.7639-1.0936-0.67028-2.3283-0.67028-1.27 0-2.1872 0.45861-0.88195 0.45861-1.4464 1.2347-0.56444 0.74083-0.84667 1.7639-0.24694 1.0231-0.24694 2.1519 0 1.0936 0.24694 2.1519 0.28223 1.0231 0.84667 1.8344 0.59972 0.81139 1.5169 1.3053 0.91723 0.49389 2.1872 0.49389 1.1994 0 2.3989-0.56444 1.2347-0.59972 2.3636-1.8344l2.1872 2.3636z"/>
   <path d="m509.36-50.854v-11.113q0-1.7639-1.0231-2.6106-0.98777-0.84667-2.54-0.84667-0.74083 0-1.4111 0.3175-0.635 0.3175-1.1642 0.81139-0.52917 0.49389-0.9525 1.0936-0.38806 0.56444-0.70556 1.0583v11.289h-3.6336v-24.694h3.6336v8.2903q0.84667-0.70556 2.0461-1.1289 1.1994-0.42333 2.6811-0.42333 1.3758 0 2.5753 0.42333 1.2347 0.38806 2.1167 1.1994 0.91722 0.81139 1.4464 2.0108 0.52916 1.1994 0.52916 2.7517v11.571z"/>
   <path d="m529.36-59.603q0-1.27-0.24695-2.3283-0.24694-1.0936-0.81139-1.8697-0.52916-0.81139-1.4111-1.27-0.88194-0.45861-2.1167-0.45861-1.2347 0-2.0814 0.45861-0.84667 0.42333-1.4111 1.2347-0.52916 0.77611-0.77611 1.8697-0.24694 1.0583-0.24694 2.3283 0 1.2347 0.24694 2.3283 0.24695 1.0936 0.77611 1.905 0.56445 0.77611 1.4111 1.2347 0.84666 0.45861 2.0814 0.45861 1.2347 0 2.1167-0.42333 0.88195-0.45861 1.4111-1.2347 0.56445-0.81139 0.81139-1.8697 0.24695-1.0936 0.24695-2.3636zm3.7394 0.03528q0 1.8697-0.52917 3.5278-0.49388 1.6228-1.5522 2.8575-1.023 1.1994-2.6106 1.905-1.5522 0.67028-3.6336 0.67028-2.0814 0-3.6336-0.70556-1.5169-0.70556-2.5753-1.9403-1.0231-1.2347-1.5522-2.8928-0.49389-1.6581-0.49389-3.5278 0-1.905 0.49389-3.5278 0.52917-1.6581 1.5522-2.8575 1.0583-1.2347 2.5753-1.905 1.5522-0.70556 3.6336-0.70556 2.0814 0 3.6336 0.70556 1.5875 0.70556 2.6106 1.9403 1.0583 1.2347 1.5522 2.8928 0.52917 1.6581 0.52917 3.5631z"/>
   <path d="m549.46-59.603q0-1.27-0.24695-2.3283-0.24694-1.0936-0.81138-1.8697-0.52917-0.81139-1.4111-1.27-0.88194-0.45861-2.1167-0.45861t-2.0814 0.45861q-0.84667 0.42333-1.4111 1.2347-0.52917 0.77611-0.77611 1.8697-0.24695 1.0583-0.24695 2.3283 0 1.2347 0.24695 2.3283 0.24694 1.0936 0.77611 1.905 0.56444 0.77611 1.4111 1.2347 0.84667 0.45861 2.0814 0.45861t2.1167-0.42333q0.88195-0.45861 1.4111-1.2347 0.56444-0.81139 0.81138-1.8697 0.24695-1.0936 0.24695-2.3636zm3.7394 0.03528q0 1.8697-0.52916 3.5278-0.49389 1.6228-1.5522 2.8575-1.0231 1.1994-2.6106 1.905-1.5522 0.67028-3.6336 0.67028t-3.6336-0.70556q-1.517-0.70556-2.5753-1.9403-1.0231-1.2347-1.5522-2.8928-0.49389-1.6581-0.49389-3.5278 0-1.905 0.49389-3.5278 0.52916-1.6581 1.5522-2.8575 1.0583-1.2347 2.5753-1.905 1.5522-0.70556 3.6336-0.70556t3.6336 0.70556q1.5875 0.70556 2.6106 1.9403 1.0583 1.2347 1.5522 2.8928 0.52916 1.6581 0.52916 3.5631z"/>
   <path d="m556.72-50.854v-24.694h3.563v24.694z"/>
  </g>
 </g>
</svg>
